<svg xmlns="http://www.w3.org/2000/svg" width="100" height="100" viewBox="0 0 100 100">
  <g id="Group_5244" data-name="Group 5244" transform="translate(2124 2305)">
    <rect id="Rectangle_3989" data-name="Rectangle 3989" width="100" height="100" rx="5" transform="translate(-2124 -2305)" fill="#8cc84b"/>
    <path id="Path_14742" data-name="Path 14742" d="M61.961,150.99a1.87,1.87,0,0,0-1.87,1.87,5.749,5.749,0,0,1-5.735,5.61H53.24a5.63,5.63,0,0,1-3.5-1.229l-5.292-4.234a9.237,9.237,0,0,0-5.749-2.017,9.439,9.439,0,0,0-6.773,2.951,9.241,9.241,0,0,0-12.532-.934L14.1,157.241a5.978,5.978,0,0,1-3.629,1.229H9.35a5.616,5.616,0,0,1-5.61-5.61,1.87,1.87,0,0,0-3.74,0v6.57c0,11.97,7.895,17.616,19.63,17.616a15.137,15.137,0,0,0,12.284-5.7,15.759,15.759,0,0,0,12.593,5.824c13.189-.243,19.324-7.458,19.324-17.085V152.86A1.87,1.87,0,0,0,61.961,150.99ZM44.546,173.432c-.78.024-7.708.052-10.884-6.3l-.074-.149a1.87,1.87,0,0,0-3.345,0C27.62,172.23,23,173.318,19.58,173.306c-10.153-.035-15.471-4.393-15.821-12.956A9.3,9.3,0,0,0,9.35,162.21h1.116a9.7,9.7,0,0,0,5.966-2.049l5.292-4.234a5.483,5.483,0,0,1,3.413-1.2,6.035,6.035,0,0,1,4.7,2.444,8.1,8.1,0,0,0,.933.905,1.87,1.87,0,0,0,2.289,0,8.068,8.068,0,0,0,.9-.868,6.242,6.242,0,0,1,4.735-2.481,5.483,5.483,0,0,1,3.413,1.2l5.293,4.234a9.384,9.384,0,0,0,5.841,2.049h1.116a9.456,9.456,0,0,0,5.734-1.926c-.077,7.576-4.565,12.807-15.544,13.148Z" transform="translate(-2106 -2418.99)" fill="#fff"/>
  </g>
</svg>
